<svg xmlns="http://www.w3.org/2000/svg" fill="#FF8000" viewBox="0 0 16 16"><path fill="#FF8000" d="M 1 3 z z M 8 1.783 C 7.015 0.936 5.587 0.81 4.287 0.94 c -1.514 0.153 -3.042 0.672 -3.994 1.105 A 0.5 0.5 0 0 0 0 2.5 v 11 a 0.5 0.5 0 0 0 0.707 0.455 c 0.882 -0.4 2.303 -0.881 3.68 -1.02 c 1.409 -0.142 2.59 0.087 3.223 0.877 a 0.5 0.5 0 0 0 0.78 0 c 0.633 -0.79 1.814 -1.019 3.222 -0.877 c 1.378 0.139 2.8 0.62 3.681 1.02 A 0.5 0.5 0 0 0 16 13.5 v -11 a 0.5 0.5 0 0 0 -0.293 -0.455 c -0.952 -0.433 -2.48 -0.952 -3.994 -1.105 C 10.413 0.809 8.985 0.936 8 1.783 z"/></svg>
