<svg xmlns="http://www.w3.org/2000/svg" viewBox="0 0 120 420" width="120" height="420">
  <rect x="0" y="0" width="120" height="420" fill="#14181C"/>

  <g transform="translate(10, 10)">
      
      <rect x="24" y="0" width="52" height="400" fill="#2C3440"/>

      <g fill="#445566">
        <rect x="8" y="10" width="8" height="6" rx="1"/>
        <rect x="8" y="35" width="8" height="6" rx="1"/>
        <rect x="8" y="60" width="8" height="6" rx="1"/>
        <rect x="8" y="85" width="8" height="6" rx="1"/>
        <rect x="84" y="10" width="8" height="6" rx="1"/>
        <rect x="84" y="35" width="8" height="6" rx="1"/>
        <rect x="84" y="60" width="8" height="6" rx="1"/>
        <rect x="84" y="85" width="8" height="6" rx="1"/>
        
        <rect x="8" y="110" width="8" height="6" rx="1"/>
        <rect x="8" y="135" width="8" height="6" rx="1"/>
        <rect x="8" y="160" width="8" height="6" rx="1"/>
        <rect x="8" y="185" width="8" height="6" rx="1"/>
        <rect x="84" y="110" width="8" height="6" rx="1"/>
        <rect x="84" y="135" width="8" height="6" rx="1"/>
        <rect x="84" y="160" width="8" height="6" rx="1"/>
        <rect x="84" y="185" width="8" height="6" rx="1"/>

        <rect x="8" y="210" width="8" height="6" rx="1"/>
        <rect x="8" y="235" width="8" height="6" rx="1"/>
        <rect x="8" y="260" width="8" height="6" rx="1"/>
        <rect x="8" y="285" width="8" height="6" rx="1"/>
        <rect x="84" y="210" width="8" height="6" rx="1"/>
        <rect x="84" y="235" width="8" height="6" rx="1"/>
        <rect x="84" y="260" width="8" height="6" rx="1"/>
        <rect x="84" y="285" width="8" height="6" rx="1"/>

        <rect x="8" y="310" width="8" height="6" rx="1"/>
        <rect x="8" y="335" width="8" height="6" rx="1"/>
        <rect x="8" y="360" width="8" height="6" rx="1"/>
        <rect x="8" y="385" width="8" height="6" rx="1"/>
        <rect x="84" y="310" width="8" height="6" rx="1"/>
        <rect x="84" y="335" width="8" height="6" rx="1"/>
        <rect x="84" y="360" width="8" height="6" rx="1"/>
        <rect x="84" y="385" width="8" height="6" rx="1"/>
      </g>

      <text x="50" y="60" 
            font-family="Arial, Helvetica, sans-serif" 
            font-weight="900" 
            font-size="28" 
            fill="#FF8000" 
            text-anchor="middle" 
            letter-spacing="1">FBXd</text>
  </g>
</svg>